<?xml version="1.0" encoding="UTF-8" standalone="no"?><!DOCTYPE svg PUBLIC "-//W3C//DTD SVG 1.1//EN" "http://www.w3.org/Graphics/SVG/1.1/DTD/svg11.dtd"><svg width="100%" height="100%" viewBox="0 0 945 945" version="1.1" xmlns="http://www.w3.org/2000/svg" xmlns:xlink="http://www.w3.org/1999/xlink" xml:space="preserve" xmlns:serif="http://www.serif.com/" style="fill-rule:evenodd;clip-rule:evenodd;stroke-linejoin:round;stroke-miterlimit:2;"><g id="Fondos"></g><g id="Icono-V1-Fondo-Oscuro" serif:id="Icono V1 Fondo Oscuro"><path id="Luz" d="M863.165,526.63l-434.165,-157.63l7.943,-68.133l330.26,-88.293c61.846,69.732 99.419,161.471 99.419,261.916c0,10.094 -0.379,20.1 -1.125,30.004c-0.628,7.25 -1.406,14.626 -2.332,22.136Z" style="fill:#bf95a5;"/><path id="Faro" d="M361.737,224.286c1.119,-0.176 2.086,-0.88 2.596,-1.892c0.51,-1.012 0.503,-2.207 -0.021,-3.212c-1.014,-1.991 -1.592,-4.243 -1.592,-6.629c0,-8.003 6.497,-14.5 14.5,-14.5c8.003,0 14.5,6.497 14.5,14.5c0,2.293 -0.533,4.462 -1.482,6.39c-0.502,1.009 -0.492,2.198 0.028,3.198c0.519,1 1.485,1.693 2.599,1.863c51.814,7.931 58.234,61.413 59.018,75.566c0.061,1.912 1.629,3.43 3.541,3.43l13.474,-0c0.94,0 1.841,0.373 2.506,1.038c0.664,0.665 1.038,1.566 1.038,2.506l-0,5.913c0,0.94 -0.373,1.841 -1.038,2.506c-0.664,0.665 -1.566,1.038 -2.506,1.038l-17.266,0c-1.562,0 -2.941,1.023 -3.392,2.519l-13.861,45.913c-0.324,1.073 -0.121,2.237 0.548,3.137c0.668,0.9 1.723,1.431 2.845,1.431l31.127,0c1.957,0 3.543,1.586 3.543,3.543l0,52.913c0,1.957 -1.586,3.543 -3.543,3.543l-32.102,0c-0.982,0 -1.92,0.408 -2.59,1.125c-0.67,0.718 -1.012,1.682 -0.945,2.661l17.917,260.166c0.068,0.986 -0.279,1.956 -0.958,2.675c-0.678,0.719 -1.626,1.122 -2.615,1.112l-140.882,-1.48c-0.97,-0.01 -1.894,-0.418 -2.555,-1.128c-0.661,-0.71 -1.003,-1.66 -0.945,-2.628l15.551,-258.748c0.059,-0.975 -0.288,-1.931 -0.957,-2.642c-0.67,-0.711 -1.603,-1.114 -2.58,-1.114l-29.694,-0c-1.957,-0 -3.543,-1.586 -3.543,-3.543l-0,-52.913c-0,-1.957 1.586,-3.543 3.543,-3.543l28.599,0c1.132,-0 2.196,-0.541 2.863,-1.455c0.667,-0.914 0.857,-2.093 0.511,-3.17l-14.727,-45.913c-0.47,-1.466 -1.834,-2.461 -3.374,-2.461l-13.872,0c-0.94,-0 -1.841,-0.373 -2.505,-1.038c-0.664,-0.665 -1.038,-1.566 -1.038,-2.506l0,-5.913c-0,-0.94 0.373,-1.841 1.038,-2.506c0.664,-0.665 1.566,-1.038 2.506,-1.038c3.801,0 9.814,0 13.697,-0.011c0.973,-0 1.903,-0.402 2.571,-1.11c0.667,-0.708 1.013,-1.661 0.955,-2.632c-0.476,-14.453 1.882,-66.132 58.971,-74.96Z" style="fill:#fbf5f3;"/><g id="Ventanas-Faro" serif:id="Ventanas Faro"><path d="M313.895,319.448c-0.281,-1.063 -0.052,-2.196 0.619,-3.067c0.671,-0.871 1.708,-1.381 2.807,-1.381c6.528,0 18.278,0 23.62,0c1.632,0 3.053,1.114 3.441,2.699c2.106,8.586 8.663,35.32 11.262,45.913c0.259,1.057 0.018,2.175 -0.653,3.031c-0.672,0.856 -1.7,1.357 -2.788,1.357c-6.314,-0 -17.583,-0 -22.754,-0c-1.608,0 -3.015,-1.083 -3.426,-2.638c-2.246,-8.503 -9.312,-35.253 -12.128,-45.913Z" style="fill:#eaa7a2;"/><path d="M438.545,319.448c0.281,-1.063 0.052,-2.196 -0.619,-3.067c-0.671,-0.871 -1.708,-1.381 -2.807,-1.381c-6.528,0 -18.278,0 -23.62,0c-1.632,0 -3.053,1.114 -3.441,2.699c-2.106,8.586 -8.663,35.32 -11.262,45.913c-0.259,1.057 -0.018,2.175 0.653,3.031c0.672,0.856 1.7,1.357 2.788,1.357c6.314,-0 17.583,-0 22.754,-0c1.608,0 3.015,-1.083 3.426,-2.638c2.246,-8.503 9.312,-35.253 12.128,-45.913Z" style="fill:#eaa7a2;"/><path d="M358.359,319.07c-0.154,-1.02 0.145,-2.057 0.818,-2.839c0.673,-0.782 1.654,-1.232 2.685,-1.232c7.109,0 21.607,0 28.716,0c1.032,0 2.012,0.45 2.685,1.232c0.673,0.782 0.972,1.818 0.818,2.839c-1.541,10.244 -5.554,36.914 -6.908,45.913c-0.261,1.734 -1.751,3.016 -3.504,3.016c-3.983,0 -10.917,0 -14.9,0c-1.753,-0 -3.243,-1.282 -3.504,-3.016c-1.354,-8.999 -5.367,-35.67 -6.908,-45.913Z" style="fill:#eaa7a2;"/></g><path id="Mar" d="M830.986,638.566c-62.349,136.204 -199.883,230.924 -359.364,230.924c-94.666,0 -181.599,-33.374 -249.665,-88.988c-12.35,-10.142 -23.286,-20.324 -32.837,-30.047c-34.265,-34.88 -50.714,-63.851 -50.714,-63.851l0.033,0.023c32.25,22.14 65.476,-5.516 99.676,-82.85c0.639,-1.439 2.152,-2.283 3.712,-2.071c1.56,0.212 2.793,1.429 3.025,2.986c14.082,123.423 212.124,-119.1 289.75,-197.351c16.812,-16.947 27.975,-26.189 30.399,-22.34c-2.37,10.997 -4.472,21.348 -6.319,31.083c-42.443,223.7 49.904,121.822 129.187,46.903c15.757,-14.89 30.999,-28.715 44.564,-38.708c1.202,-0.839 2.797,-0.849 4.01,-0.026c1.213,0.823 1.793,2.308 1.459,3.736c-2.279,10.098 -6.102,27.941 -9.865,49.581c-17.114,98.425 -32.969,275.414 103.495,159.679c0,0 -0.179,0.453 -0.545,1.318Z" style="fill:#d1c6eb;"/></g></svg>